<svg width="18" height="18" viewBox="0 0 23 20" fill="none" xmlns="http://www.w3.org/2000/svg">
<path d="M11.8192 5.55047C12.2935 5.55047 12.6775 5.1665 12.6775 4.6922C12.6775 4.21789 12.2935 3.83392 11.8192 3.83392C11.3449 3.83392 10.9609 4.21789 10.9609 4.6922C10.9609 5.1665 11.3449 5.55047 11.8192 5.55047Z" fill="#FEFFFE"/>
<path d="M22.8967 4.81084C22.8684 3.99209 22.5861 3.40486 22.0949 3.15076C21.9255 3.06606 21.7335 3.02089 21.5302 3.02089C20.5759 3.02089 19.3676 3.9808 18.7126 5.25127C18.3512 5.95709 18.2778 6.53868 18.4867 7.02428C18.5884 7.26143 18.7578 7.47036 19.0062 7.66798C18.9949 7.68492 18.9893 7.70186 18.978 7.71316L18.5206 8.44156C17.9334 9.37323 16.3749 11.8746 15.782 12.8176C15.7425 12.8797 15.6861 12.9644 15.6352 13.0548C15.5505 13.1903 15.4545 13.3484 15.3924 13.4331V13.4387C15.223 13.6985 14.9125 13.8622 14.585 13.8622C14.4495 13.8622 14.3083 13.834 14.1897 13.7775H14.1841C14.0429 13.7154 13.93 13.5968 13.8453 13.4896C13.8396 13.4783 13.834 13.4726 13.8283 13.4613C13.8114 13.4331 13.7888 13.3992 13.7719 13.371C13.5912 13.0435 13.3484 12.5974 13.0548 12.0553C13.2298 11.7617 13.4218 11.4455 13.6194 11.118C14.4833 9.68379 15.4658 8.05195 16.1095 6.91135L16.1152 6.9057C16.8549 5.43196 16.7758 3.70412 15.895 2.2812C15.0141 0.852626 13.5008 0 11.8464 0H11.8238C10.0565 0 8.48673 0.931677 7.6341 2.49012C6.78148 4.04291 6.84359 5.86109 7.79221 7.34613C8.59401 8.70694 9.5878 10.3614 10.5872 12.0215L9.87578 13.3258C9.86448 13.3427 9.85884 13.354 9.85319 13.3653H9.84754L9.80237 13.4387C9.65556 13.6928 9.36194 13.8453 9.04009 13.8453C8.89328 13.8453 8.75212 13.8114 8.62225 13.7493C8.47544 13.6759 8.32863 13.5347 8.2157 13.3597C8.11406 13.1903 7.65104 12.4562 7.16544 11.677C6.67984 10.8978 6.21118 10.0678 6.08696 9.85884L4.76002 7.62281C4.96894 7.3913 5.04799 7.19932 5.12705 6.88312C5.26821 6.35799 5.1948 5.81028 4.92377 5.33597L3.53473 2.93055L2.84585 3.3258L4.04856 5.40937C4.08809 5.47713 4.0655 5.56183 3.99774 5.60135C3.97516 5.61265 3.95257 5.61829 3.92434 5.61829C3.87352 5.61829 3.82835 5.59006 3.80011 5.54489L2.5974 3.46132L1.88594 3.87352L3.08865 5.95709C3.12818 6.02484 3.10559 6.10954 3.03783 6.14907C3.01525 6.16036 2.99266 6.16601 2.97007 6.16601C2.91925 6.16601 2.87408 6.13777 2.84585 6.0926L1.64314 4.00903L0.931677 4.42123L2.13439 6.5048C2.15133 6.53868 2.15697 6.5782 2.15133 6.61208C2.14003 6.64596 2.11745 6.67984 2.08357 6.69678C2.06098 6.70807 2.0384 6.71372 2.01016 6.71372C1.95934 6.71372 1.91417 6.68549 1.88594 6.64032L0.688876 4.57933L0 4.97459L1.38905 7.38001C1.75042 8.00678 2.42801 8.39639 3.15641 8.39639C3.26934 8.39639 3.37662 8.38509 3.48955 8.36815V8.3738L3.87916 9.10785C3.88481 9.11914 3.89046 9.13043 3.8961 9.14173C4.3083 9.93224 4.99718 11.214 5.60135 12.349C5.99096 13.0774 6.35799 13.7719 6.62338 14.2744C6.75325 14.5116 6.9057 14.7261 7.08075 14.9125C7.18238 14.8842 7.28967 14.8617 7.39695 14.8447C7.49294 14.8334 7.59458 14.8221 7.69622 14.8221C8.31733 14.8221 8.91587 15.0819 9.345 15.5392C9.41276 15.6126 9.47487 15.6861 9.53134 15.7651C10.2654 15.6635 10.9373 15.2964 11.3834 14.7318V14.7261C11.4681 14.6132 11.5641 14.472 11.6431 14.3478C11.6714 14.297 11.7335 14.1954 11.8125 14.0655C11.869 14.1558 11.9819 14.3422 11.9819 14.3422C12.0949 14.5172 12.2134 14.6979 12.3546 14.8447C12.7668 15.3134 13.3427 15.6239 13.9752 15.7256C14.0316 15.6522 14.0937 15.5788 14.1615 15.5054C14.5906 15.0593 15.1666 14.8165 15.782 14.8165C15.9232 14.8165 16.0644 14.8278 16.1942 14.856C16.2959 14.873 16.3919 14.9012 16.4879 14.9294C16.6177 14.7995 16.7307 14.6527 16.8323 14.489C16.8436 14.472 16.8605 14.4438 16.8718 14.4212C16.9057 14.3648 16.9509 14.297 16.9735 14.2462C17.2219 13.7775 17.5607 13.1395 17.9221 12.4619C18.5545 11.2761 19.2716 9.93789 19.6951 9.11914L20.096 8.36251C20.1129 8.32863 20.1355 8.30039 20.1468 8.26652C20.3444 8.32863 20.5308 8.35686 20.7115 8.35686C21.3665 8.35686 21.8972 7.95031 22.3264 7.10898C22.7216 6.40316 22.9193 5.56183 22.8967 4.81084ZM11.8069 9.80237C11.5246 9.29418 11.2592 8.81423 11.0503 8.43591L9.78543 6.18295C9.69509 6.02484 9.58216 5.81592 9.50875 5.60135C9.25466 4.88425 9.37888 4.0655 9.83625 3.41615C10.2936 2.77244 11.0164 2.38848 11.773 2.38848C11.7843 2.38848 11.8012 2.38848 11.8125 2.38848H11.8408C12.6652 2.38848 13.4218 2.81762 13.8679 3.53473C14.3139 4.25183 14.3648 5.12705 14.0034 5.86674C13.6533 6.49915 13.2072 7.30096 12.7273 8.14794C12.428 8.69565 12.1118 9.26595 11.8069 9.80237Z" fill="#FEFFFE"/>
<path d="M8.7294 16.533C8.35673 16.1321 7.82031 15.8837 7.22742 15.8837C7.13143 15.8837 7.04109 15.8893 6.95074 15.9006C5.94566 16.0361 5.16644 16.9 5.16644 17.939C5.16644 18.6166 5.49394 19.2151 6.00212 19.5934L1.87451 19.7685L6.96768 19.983C7.05238 19.9943 7.13708 20 7.22177 20C8.35673 20 9.28276 19.074 9.28276 17.939C9.2884 17.3913 9.07384 16.9 8.7294 16.533ZM7.22742 18.8142C6.74182 18.8142 6.35221 18.419 6.35221 17.939C6.35221 17.4534 6.74747 17.0638 7.22742 17.0638C7.71302 17.0638 8.10263 17.4591 8.10263 17.939C8.10828 18.419 7.71302 18.8142 7.22742 18.8142Z" fill="#FEFFFE"/>
<path d="M16.5841 15.912C16.4655 15.8894 16.3356 15.8781 16.2114 15.8781C15.6298 15.8781 15.1103 16.1209 14.732 16.5049C14.3707 16.8775 14.1504 17.3801 14.1504 17.9334C14.1504 18.611 14.4779 19.2152 14.9861 19.5879L10.9263 19.7573L15.9122 19.9662C16.0081 19.9775 16.1041 19.9888 16.2058 19.9888C17.3407 19.9888 18.2668 19.0628 18.2668 17.9278C18.2724 16.9284 17.544 16.087 16.5841 15.912ZM16.2114 18.8143C15.7258 18.8143 15.3362 18.4191 15.3362 17.9391C15.3362 17.4535 15.7315 17.0639 16.2114 17.0639C16.697 17.0639 17.0866 17.4591 17.0866 17.9391C17.0866 18.4191 16.697 18.8143 16.2114 18.8143Z" fill="#FEFFFE"/>
</svg>