<svg width="16" height="16" viewBox="0 0 16 16" fill="none" xmlns="http://www.w3.org/2000/svg">
<path fill-rule="evenodd" clip-rule="evenodd" d="M2.76992 0.7523C2.28177 0.264145 1.49031 0.264145 1.00216 0.7523C0.514001 1.24046 0.514001 2.03191 1.00216 2.52007L6.48223 8.00014L1.00216 13.4802C0.514002 13.9684 0.514001 14.7598 1.00216 15.248C1.49031 15.7361 2.28177 15.7361 2.76992 15.248L8.25 9.76791L13.7301 15.248C14.2182 15.7361 15.0097 15.7361 15.4978 15.248C15.986 14.7598 15.986 13.9684 15.4978 13.4802L10.0178 8.00014L15.4978 2.52007C15.986 2.03191 15.986 1.24046 15.4978 0.7523C15.0097 0.264145 14.2182 0.264145 13.7301 0.7523L8.25 6.23238L2.76992 0.7523Z" fill="black"/>
</svg>
