<svg width="324" height="94" viewBox="0 0 324 94" fill="none" xmlns="http://www.w3.org/2000/svg">
<path d="M258.316 90.7515L256.224 84.8633C263.207 82.256 266.391 88.1345 272.389 83.4506L272.05 84.7203C272.913 86.0797 273.479 72.9269 282.953 89.0577V89.6441C283.287 89.5448 283.29 88.372 283.947 89.9349L282.31 86.339C283.309 84.8681 284.189 82.0694 285.511 81.6744C285.785 82.585 285.917 83.5241 285.903 84.4659L289.147 83.4966L290.129 87.2864C291.125 85.234 290.695 77.2425 293.33 81.6986C292.345 76.1521 294.649 78.3765 294.328 75.5536C294.458 76.2393 294.762 77.2619 295.004 78.219C296.254 77.7777 297.375 77.0965 298.286 76.2252C299.197 75.354 299.874 74.3148 300.268 73.1837C297.228 67.4713 294.636 61.583 292.51 55.5602C294.718 57.0698 293.092 54.8817 292.662 53.0159L292.513 54.3971C291.2 53.0401 291.211 49.5508 290.554 48.567C290.554 48.8481 290.579 49.1898 290.59 49.5363L290.676 49.0662C290.731 49.5312 290.715 50.0006 290.629 50.4619C290.629 51.2107 290.579 51.7995 290.22 51.5911L290.292 51.2228C289.74 51.7317 288.794 51.1816 288.38 50.9296V48.0073C287.381 53.5805 321.191 37.7963 319.897 37.6C318.612 33.9023 338.843 25.7162 299.738 30.7636C334.069 16.2309 317.482 4.272 290.676 19.0144C289.059 17.1704 289.804 16.441 289.147 16.6324L287.006 14.6309C288.142 14.2893 286.115 13.2086 285.903 12.077C284.22 11.5705 277.505 9.12447 276.926 14.9545C274.683 12.1461 272.606 14.9266 271.621 14.6309C272.099 15.6605 273.004 -3.02267 265.255 12.6755C264.372 10.0948 261.174 11.4978 261.541 12.077C260.115 14.6091 257.254 16.0218 256.876 22.4286V21.2606C256.489 26.0245 255.32 23.7105 254.31 26.3347L255.317 31.1495L253.053 28.2C252.67 27.0972 253.832 30.9222 254.034 29.7828C252.409 31.9637 250.229 29.3128 248.317 28.6512L254.034 26.737C252.447 23.7153 252.876 14.345 252.479 18.5274L248.317 20.7833C245.211 12.3895 243.114 26.3359 241.87 23.8037L239.304 28.5931L244.435 19.0144C243.006 16.7518 238.348 24.0497 237.494 21.5732L237.477 21.7017C237.572 21.9301 237.621 22.171 237.624 22.4141L237.394 22.5255C237.149 24.8978 236.269 26.5092 235.124 26.3347C233.513 25.6393 232.164 29.1286 229.678 24.0473L228.919 28.9057L227.035 25.9737L227.126 22.0966C229.029 22.3583 232.644 20.9408 235.107 20.7833L235.187 19.0144C233.736 18.9974 232.045 20.6864 231.093 20.2841C230.1 17.9074 229.882 15.3347 230.461 12.8548L229.479 16.6324C224.623 16.9911 224.582 17.1631 219.643 12.6755L220.03 14.6309C218.998 15.7529 217.969 16.8457 217.773 13.6883C214.757 12.9856 211.681 10.4777 209.86 5.5296L209.295 10.0876C208.663 9.82101 207.915 2.90537 207.407 9.28792L205.978 11.2676C205.115 10.8969 204.5 13.492 203.584 10.846V10.8339L203.413 10.2911V10.6715C201.495 8.60217 203.302 14.7618 201.117 12.077C200.493 8.81299 200.127 17.8513 199.053 16.7875L198.157 10.2111C196.281 6.40195 195.718 12.9614 192.815 12.9081C191.291 8.73468 191.051 4.28119 192.12 0C190.644 5.97304 191.408 3.89883 189.637 6.73633C189.474 4.99091 189.635 3.23388 190.114 1.53387C188.735 -1.3957 189.116 3.73893 187.995 3.55962C187.502 8.19993 186.853 15.5905 186.475 15.8789L186.859 17.3327C185.573 19.7825 184.221 20.902 182.919 18.5274L183.06 16.189L181.537 17.3303L181.556 14.3377L179.41 15.2004L179.669 16.0146C179.158 16.395 177.489 17.3763 176.62 15.7868L176.72 14.1269C174.306 8.86385 171.869 15.5978 168.765 16.0388L169.317 12.6633C168.412 9.25639 168.807 17.8707 167.632 16.143L167.747 11.9752C166.415 17.4127 166.368 10.7636 165.711 8.6676L165.83 14.1366L164.45 12.925C162.961 11.0616 163.794 5.9973 164.147 3.14769L162.892 7.40996V2.58794C161.863 8.16116 162.155 1.65987 160.654 4.61852C160.624 2.79147 161.016 1.75921 160.588 0.966838L158.028 7.68135L159.523 4.71787L159.037 11.745C157.382 17.0371 157.153 10.9114 156.05 12.8403L156.844 10.7733C155.114 12.4234 155.167 9.42602 154.308 7.83402C154.742 9.20601 154.695 10.661 154.173 12.0091C153.666 12.3798 154.024 9.52538 153.597 8.73301C153.266 13.4169 151.961 15.8619 150.992 13.6084C151.02 13.0283 151.082 12.45 151.18 11.8758C150.871 12.6246 150.669 13.8265 150.247 12.6827L150.78 7.48265L149.621 12.4065C149.069 10.9526 148.002 14.7012 148.242 11.1949L148.639 10.1651L144.067 8.72573L144.213 4.55308C143.466 10.2717 141.805 2.27536 141.59 9.44059C140.919 5.50298 138.003 12.0648 138.941 4.00789C135.937 3.26399 133.873 10.9793 130.388 6.88175C129.45 -0.0290492 125.726 2.03546 123.397 1.20432C119.319 3.82695 115.032 6.19065 110.571 8.27745C108.314 -1.41511 103.249 11.224 100.52 5.67258L99.433 9.42846C97.7776 3.29064 94.1908 10.5237 91.7077 4.47314C91.3884 5.28515 90.9227 6.04684 90.3283 6.72908C90.6004 7.82397 90.6564 8.95177 90.4938 10.0633C89.7903 8.32591 87.9914 10.3565 88.4384 5.54901L88.6812 5.06439C89.1337 0.256881 86.0464 7.18221 85.4257 2.96352L85.5636 8.14904L84.0765 7.19433L84.5621 6.22505C77.0136 17.323 75.1595 0.775426 68.0718 10.8654C69.3326 5.29216 66.6013 13.7489 66.9848 7.59413C65.9805 -0.232615 63.9086 9.09164 62.4408 11.0786C62.4117 11.4567 62.3518 11.8324 62.2615 12.203L60.0322 11.333C62.0021 3.63956 57.883 17.6841 59.6542 11.1465C54.1556 4.96503 45.9119 10.4001 39.2379 7.26942L39.3704 9.28792C37.6571 8.78875 35.2733 11.0689 34.2222 7.78555C33.171 4.50219 30.8782 12.6633 30.3347 12.9468C28.5773 16.2884 27.8517 9.35819 28.4476 9.75316C26.8116 10.6013 24.712 17.5993 22.8221 14.408C22.6814 7.78071 16.3386 20.4513 16.9483 13.0268L16.8683 13.652C14.5867 8.22657 11.149 16.9281 8.61071 11.9824C8.61071 11.9824 8.71836 11.4421 8.86735 10.9502L0.634591 33.0177L0 57.9107L3.44045 78.4104L18.3802 75.0835L29.3085 83.7341L57.8278 82.8472L60.275 77.3685C65.0977 87.4706 73.0516 76.6415 78.5392 83.9352L79.0028 79.1253C80.7078 78.929 80.3823 81.907 80.7465 82.76C96.5471 82.5564 113.07 76.8669 126.857 83.5596C128.046 86.8139 132.298 85.1007 133.189 88.5125C134.653 86.4508 136.854 84.8734 139.447 84.0268C142.04 83.1802 144.88 83.1122 147.522 83.8334L147.32 84.3568L149.527 83.5063C149.596 83.9525 149.586 84.4053 149.497 84.8487C152.14 80.6615 155.787 85.0207 158.709 86.8623L158.51 87.3809C175.975 88.8736 192.479 80.3078 209.587 87.4294C217.442 95.4766 227.093 84.7978 236.194 91.4905C237.817 96.3853 256.641 92.9978 258.316 90.7515Z" fill="#FF612E"/>
</svg>
